<svg width="20" height="20" viewBox="0 0 20 20" fill="none" xmlns="http://www.w3.org/2000/svg">
<path fill-rule="evenodd" clip-rule="evenodd" d="M10.9124 18.6912C10.7955 18.8161 10.6542 18.9157 10.4972 18.9837C10.3403 19.0518 10.171 19.0869 9.99993 19.0869C9.82885 19.0869 9.65959 19.0518 9.50263 18.9837C9.34567 18.9157 9.20435 18.8161 9.08743 18.6912L1.15618 10.2287C0.406179 9.43122 0.973679 8.12497 2.06868 8.12497H5.62493V6.87497C5.62493 6.54345 5.75663 6.22551 5.99105 5.99109C6.22547 5.75667 6.54341 5.62497 6.87493 5.62497H13.1249C13.4564 5.62497 13.7744 5.75667 14.0088 5.99109C14.2432 6.22551 14.3749 6.54345 14.3749 6.87497V8.12497H17.9324C19.0249 8.12497 19.5924 9.43122 18.8449 10.23L10.9124 18.6912ZM14.3749 3.12497C14.3749 3.45649 14.2432 3.77444 14.0088 4.00886C13.7744 4.24328 13.4564 4.37497 13.1249 4.37497H6.87493C6.54341 4.37497 6.22547 4.24328 5.99105 4.00886C5.75663 3.77444 5.62493 3.45649 5.62493 3.12497V1.87497C5.62493 1.54345 5.75663 1.22551 5.99105 0.991091C6.22547 0.75667 6.54341 0.624973 6.87493 0.624973H13.1249C13.4564 0.624973 13.7744 0.75667 14.0088 0.991091C14.2432 1.22551 14.3749 1.54345 14.3749 1.87497V3.12497Z" fill="#40A9FF"/>
</svg>
