<svg width="24" height="24" viewBox="0 0 24 24" fill="none" xmlns="http://www.w3.org/2000/svg">
<path fill-rule="evenodd" clip-rule="evenodd" d="M12.5311 2.46906C12.601 2.53873 12.6564 2.62149 12.6942 2.71261C12.732 2.80373 12.7515 2.90141 12.7515 3.00006C12.7515 3.09871 12.732 3.19639 12.6942 3.28751C12.6564 3.37863 12.601 3.46139 12.5311 3.53106L4.06062 12.0001L12.5311 20.4691C12.6719 20.6099 12.7511 20.8009 12.7511 21.0001C12.7511 21.1992 12.6719 21.3902 12.5311 21.5311C12.3903 21.6719 12.1993 21.751 12.0001 21.751C11.801 21.751 11.6099 21.6719 11.4691 21.5311L2.46912 12.5311C2.39928 12.4614 2.34386 12.3786 2.30605 12.2875C2.26824 12.1964 2.24878 12.0987 2.24878 12.0001C2.24878 11.9014 2.26824 11.8037 2.30605 11.7126C2.34386 11.6215 2.39928 11.5387 2.46912 11.4691L11.4691 2.46906C11.5388 2.39921 11.6216 2.3438 11.7127 2.30599C11.8038 2.26818 11.9015 2.24872 12.0001 2.24872C12.0988 2.24872 12.1965 2.26818 12.2876 2.30599C12.3787 2.3438 12.4615 2.39921 12.5311 2.46906Z" fill="#A8A8AE"/>
<path fill-rule="evenodd" clip-rule="evenodd" d="M18.5311 2.46906C18.601 2.53873 18.6564 2.62149 18.6942 2.71261C18.732 2.80373 18.7515 2.90141 18.7515 3.00006C18.7515 3.09871 18.732 3.19639 18.6942 3.28751C18.6564 3.37863 18.601 3.46139 18.5311 3.53106L10.0606 12.0001L18.5311 20.4691C18.6009 20.5388 18.6562 20.6216 18.6939 20.7127C18.7316 20.8038 18.7511 20.9014 18.7511 21.0001C18.7511 21.0987 18.7316 21.1963 18.6939 21.2874C18.6562 21.3785 18.6009 21.4613 18.5311 21.5311C18.4614 21.6008 18.3786 21.6561 18.2875 21.6938C18.1964 21.7316 18.0987 21.751 18.0001 21.751C17.9015 21.751 17.8039 21.7316 17.7127 21.6938C17.6216 21.6561 17.5389 21.6008 17.4691 21.5311L8.46912 12.5311C8.39927 12.4614 8.34386 12.3786 8.30605 12.2875C8.26824 12.1964 8.24878 12.0987 8.24878 12.0001C8.24878 11.9014 8.26824 11.8037 8.30605 11.7126C8.34386 11.6215 8.39927 11.5387 8.46912 11.4691L17.4691 2.46906C17.5388 2.39921 17.6216 2.3438 17.7127 2.30599C17.8038 2.26818 17.9015 2.24872 18.0001 2.24872C18.0988 2.24872 18.1965 2.26818 18.2876 2.30599C18.3787 2.3438 18.4615 2.39921 18.5311 2.46906Z" fill="#A8A8AE"/>
</svg>
