<svg width="32" height="32" viewBox="0 0 32 32" fill="none" xmlns="http://www.w3.org/2000/svg">
<rect opacity="0.2" width="32" height="32" rx="4" fill="#164397"/>
<path fill-rule="evenodd" clip-rule="evenodd" d="M13 19.75C13 19.5511 13.079 19.3603 13.2197 19.2197C13.3603 19.079 13.5511 19 13.75 19H18.25C18.4489 19 18.6397 19.079 18.7803 19.2197C18.921 19.3603 19 19.5511 19 19.75C19 19.9489 18.921 20.1397 18.7803 20.2803C18.6397 20.421 18.4489 20.5 18.25 20.5H13.75C13.5511 20.5 13.3603 20.421 13.2197 20.2803C13.079 20.1397 13 19.9489 13 19.75ZM10 15.25C10 15.0511 10.079 14.8603 10.2197 14.7197C10.3603 14.579 10.5511 14.5 10.75 14.5H21.25C21.4489 14.5 21.6397 14.579 21.7803 14.7197C21.921 14.8603 22 15.0511 22 15.25C22 15.4489 21.921 15.6397 21.7803 15.7803C21.6397 15.921 21.4489 16 21.25 16H10.75C10.5511 16 10.3603 15.921 10.2197 15.7803C10.079 15.6397 10 15.4489 10 15.25ZM7 10.75C7 10.5511 7.07902 10.3603 7.21967 10.2197C7.36032 10.079 7.55109 10 7.75 10H24.25C24.4489 10 24.6397 10.079 24.7803 10.2197C24.921 10.3603 25 10.5511 25 10.75C25 10.9489 24.921 11.1397 24.7803 11.2803C24.6397 11.421 24.4489 11.5 24.25 11.5H7.75C7.55109 11.5 7.36032 11.421 7.21967 11.2803C7.07902 11.1397 7 10.9489 7 10.75Z" fill="#164397"/>
</svg>
