<svg width="86" height="40" viewBox="0 0 86 40" fill="none" xmlns="http://www.w3.org/2000/svg">
<path fill-rule="evenodd" clip-rule="evenodd" d="M46.1861 14C46.183 18.3344 46.1735 22.6656 46.1892 27C49.7 26.9871 53.2108 27.0032 56.7216 26.9936C56.7185 25.9936 56.7153 24.9936 56.7216 23.9936C54.5906 23.9389 52.4596 23.9936 50.3286 23.9678C50.3318 23.299 50.3318 22.627 50.3286 21.9582C52.0542 21.9486 53.7766 21.9711 55.5021 21.9486L55.5744 21.881C55.5995 20.9164 55.565 19.9486 55.587 18.9839C53.8646 18.91 52.1359 18.9871 50.4104 18.9486L50.3412 18.8746C50.3192 18.2765 50.3381 17.6817 50.3412 17.0836C52.403 17.074 54.4649 17.0804 56.5267 17.0836C56.5927 16.0611 56.5613 15.0354 56.5456 14.0096C53.0914 13.9936 49.6403 14.0096 46.1861 14Z" fill="white"/>
<path fill-rule="evenodd" clip-rule="evenodd" d="M57.7255 14.0098C59.1516 18.3405 60.6318 22.652 62.0642 26.9795C63.4902 27.0181 64.9195 26.9891 66.3487 26.9956C67.8353 22.6713 69.3313 18.3502 70.7765 14.013C69.3568 14.0001 67.9371 14.0065 66.5174 14.0098C65.7853 16.8744 65.0341 19.7326 64.3083 22.5973C64.0855 22.0186 63.9868 21.3981 63.8054 20.8033C63.226 18.5431 62.6021 16.2893 62.0419 14.0226C60.6063 13.9808 59.1643 14.0098 57.7255 14.0098Z" fill="white"/>
<path fill-rule="evenodd" clip-rule="evenodd" d="M72.2824 14.0063C72.2856 18.338 72.2792 22.6664 72.2856 26.9981C73.6295 26.9981 74.9733 26.9981 76.3204 26.9981C76.3333 24.6731 76.2914 22.3481 76.3043 20.0231C76.5879 20.3543 76.8006 20.737 77.0358 21.1036C78.3023 23.0652 79.5656 25.0301 80.8289 26.9949C82.1631 27.0046 83.4973 26.9981 84.8314 26.9949C84.8314 22.6664 84.825 18.338 84.8314 14.0095C83.4715 13.9934 82.1115 14.0095 80.7483 14.0031C80.7226 16.2959 80.7548 18.5888 80.7322 20.8817C80.381 20.4926 80.1554 20.007 79.8557 19.5825C78.6729 17.7238 77.4451 15.894 76.2946 14.0159C74.9572 13.987 73.6198 14.0063 72.2824 14.0063Z" fill="white"/>
<path fill-rule="evenodd" clip-rule="evenodd" d="M46.1852 14C49.6365 14.0096 53.0911 13.9936 56.5424 14.0096C56.5581 15.0356 56.5896 16.0616 56.5236 17.0844C54.4615 17.0811 52.3995 17.0779 50.3375 17.0844C50.3344 17.6826 50.3155 18.2776 50.3375 18.8758L50.4098 18.9466C52.1355 18.9852 53.8643 18.908 55.5869 18.9819C55.5649 19.9468 55.5994 20.9149 55.5743 21.8798L55.502 21.9473C53.7794 21.9698 52.0538 21.9473 50.3281 21.957C50.3312 22.6259 50.3312 23.2949 50.3281 23.9671C52.4592 23.9928 54.5904 23.9382 56.7216 23.9928C56.7153 24.9931 56.7185 25.9933 56.7216 26.9936C53.2105 27.0032 49.6994 26.9904 46.1883 27C46.1726 22.6677 46.1852 18.3387 46.1852 14Z" fill="#2C57A7"/>
<path fill-rule="evenodd" clip-rule="evenodd" d="M57.7255 14.0098C59.164 14.0098 60.6056 13.9808 62.044 14.0226C62.6041 16.2893 63.2279 18.5398 63.8071 20.8033C63.9853 21.3981 64.0871 22.0154 64.3099 22.5973C65.0387 19.7326 65.7865 16.8712 66.5185 14.0098C67.9378 14.0065 69.3572 14.0001 70.7765 14.013C69.3317 18.3502 67.836 22.6713 66.3498 26.9956C64.9241 26.9891 63.4952 27.0181 62.0663 26.9795C60.631 22.652 59.1512 18.3405 57.7255 14.0098Z" fill="#2C57A7"/>
<path fill-rule="evenodd" clip-rule="evenodd" d="M72.2824 14.005C73.6198 14.005 74.9572 13.9889 76.2946 14.0146C77.4451 15.893 78.6729 17.7232 79.8557 19.5823C80.1586 20.0101 80.381 20.4926 80.7322 20.8818C80.7548 18.5884 80.7226 16.2951 80.7483 14.0017C82.1115 14.0082 83.4715 13.9921 84.8314 14.0082C84.825 18.3375 84.8282 22.6669 84.8314 26.9963C83.4973 26.9995 82.1631 27.0027 80.8289 26.9963C79.5688 25.031 78.3023 23.0658 77.0358 21.1037C76.8006 20.7402 76.5879 20.3543 76.3043 20.023C76.2914 22.3485 76.3333 24.674 76.3204 26.9995C74.9733 26.9995 73.6295 26.9995 72.2856 26.9995C72.2824 22.6669 72.2889 18.3375 72.2824 14.005Z" fill="#2C57A7"/>
<path fill-rule="evenodd" clip-rule="evenodd" d="M18.383 0.890903C13.9176 1.25537 9.61658 3.26785 6.46832 6.44239C3.54795 9.32641 1.61076 13.1771 1.03305 17.2311C0.351987 21.7895 1.40406 26.5804 3.94546 30.4363C6.53457 34.4269 10.6634 37.3928 15.2851 38.5575C17.6251 39.1518 20.0764 39.3261 22.472 39.0092C26.2245 38.5549 29.8206 36.9439 32.6721 34.4718C35.4599 32.0711 37.5349 28.857 38.5552 25.3259C39.7212 21.3432 39.5357 16.9855 38.0358 13.1137C36.9917 10.4092 35.3248 7.94515 33.1941 5.97492C29.2774 2.28538 23.7467 0.38118 18.383 0.890903ZM18.004 0.0616132C18.9819 -0.0255415 19.9624 0.00615113 20.9403 0.00351008C22.0824 0.00615113 23.2114 0.193666 24.327 0.420796C27.9921 1.19991 31.4133 3.04336 34.0952 5.65007C37.3574 8.81141 39.4986 13.1005 40.0154 17.6061C40.4924 21.5782 39.7583 25.693 37.8874 29.2373C36.3106 32.256 33.9468 34.8601 31.0926 36.7247C27.743 38.9352 23.7069 40.092 19.6894 39.9943C15.4441 39.9441 11.2384 38.4704 7.8755 35.8954C5.37119 33.9938 3.328 31.4927 1.96322 28.6642C0.821047 26.2899 0.142632 23.6884 0.0154295 21.0553C-0.00312091 19.8985 -0.0349216 18.7338 0.129382 17.5876C0.558691 13.8981 2.06657 10.3432 4.40657 7.45391C7.10433 4.09185 10.9204 1.6304 15.1128 0.584541C16.0615 0.333641 17.0341 0.185742 18.004 0.0616132Z" fill="#2C57A7"/>
<path fill-rule="evenodd" clip-rule="evenodd" d="M19.686 9.38532C19.0126 12.152 18.363 14.9265 17.6763 17.6879C14.7811 18.3802 11.8858 19.0804 8.99057 19.7675C8.79437 19.8309 8.5425 19.8097 8.40463 19.9868C11.2601 20.6368 14.105 21.345 16.9605 22.0056C17.2044 22.0585 17.4457 22.1245 17.6816 22.2038C18.4187 25.3219 19.1823 28.432 19.9193 31.5501C19.9618 31.4893 19.9936 31.4233 20.0174 31.3572C20.7466 28.2814 21.4889 25.2056 22.2313 22.1324C25.3148 21.4084 28.3983 20.687 31.4871 19.9868C31.4314 19.9234 31.3625 19.8784 31.2803 19.8573C28.3612 19.1623 25.45 18.4436 22.5309 17.7513C22.4089 17.7169 22.2923 17.6773 22.173 17.6377C21.4359 14.5434 20.7227 11.4464 19.983 8.35477C19.8106 8.6745 19.7762 9.03916 19.686 9.38532ZM19.8292 1.95214C19.9034 1.62976 19.9459 1.29682 20.0705 0.987652C21.1814 6.07699 22.2419 11.1795 23.3369 16.2715C23.3661 16.3957 23.4005 16.5225 23.435 16.6467C28.0642 17.6429 32.6961 18.618 37.3253 19.6063C37.9378 19.7463 38.5582 19.8467 39.1653 20.0132C37.4048 20.4466 35.6205 20.7716 33.8494 21.168C30.3815 21.8999 26.9162 22.653 23.4456 23.3744C23.2839 23.8659 23.2043 24.3812 23.093 24.8832C22.2101 28.9975 21.3298 33.1118 20.447 37.2261C20.2985 37.8206 20.2242 38.431 20.036 39.0123C19.6993 37.8074 19.4978 36.5681 19.2141 35.3526C18.3445 31.3572 17.4987 27.3539 16.6158 23.3638C11.5146 22.2725 6.40818 21.1997 1.30437 20.111C1.19567 20.0872 1.09492 20.0423 0.991516 20C4.0591 19.313 7.13729 18.6761 10.2102 18.005C12.3551 17.5293 14.5106 17.1065 16.6476 16.6045C17.7187 11.7265 18.766 6.83801 19.8292 1.95214Z" fill="#2C57A7"/>
<path fill-rule="evenodd" clip-rule="evenodd" d="M18.8063 18.6198C18.767 18.7203 18.7461 18.8604 18.6256 18.8895C17.4416 19.294 16.2052 19.5505 15.0369 19.9974C16.2497 20.4178 17.5044 20.7033 18.7199 21.1185C19.0814 22.3427 19.4559 23.5643 19.7991 24.7964C19.8515 24.7171 19.9039 24.6351 19.9275 24.5426C20.2313 23.4426 20.5666 22.3506 20.8836 21.256C20.9045 21.1 21.0564 21.0418 21.1848 21.0021C22.285 20.6584 23.4087 20.3808 24.5011 20.0106C24.2994 19.844 24.0322 19.8176 23.7938 19.7382C22.9189 19.4712 22.044 19.2094 21.1691 18.9371C21.0722 18.8895 20.9202 18.8789 20.8888 18.7546C20.5221 17.5701 20.2261 16.3617 19.8305 15.1851C19.4717 16.3247 19.1442 17.4723 18.8063 18.6198ZM19.5738 9.42362C19.6629 9.07989 19.6996 8.71236 19.8646 8.39507C20.5954 11.4887 21.3027 14.5875 22.0283 17.6838C22.1461 17.7234 22.2614 17.7631 22.3819 17.7975C25.2659 18.4902 28.1447 19.2121 31.0288 19.9048C31.1074 19.926 31.1781 19.9683 31.2331 20.0344C28.1814 20.7351 25.1323 21.4543 22.0885 22.1814C21.3577 25.2565 20.6216 28.3342 19.9013 31.4119C19.8777 31.4807 19.8462 31.5441 19.8043 31.6049C19.0761 28.4849 18.3217 25.3728 17.5935 22.2528C17.3604 22.1735 17.122 22.1074 16.881 22.0545C14.0598 21.3934 11.2518 20.6822 8.42797 20.0344C8.5668 19.8599 8.81303 19.8784 9.00687 19.8149C11.87 19.1275 14.7278 18.4268 17.5883 17.734C18.2641 14.9656 18.9059 12.192 19.5738 9.42362Z" fill="#EE2A28"/>
<path fill-rule="evenodd" clip-rule="evenodd" d="M19.1204 18.6616C19.4541 17.544 19.78 16.4211 20.1397 15.3086C20.5334 16.4573 20.828 17.6343 21.193 18.7933C21.2243 18.9146 21.3755 18.9249 21.472 18.9714C22.3427 19.2347 23.2135 19.4928 24.0843 19.7535C24.3216 19.8309 24.5901 19.8542 24.7882 20.0194C23.7011 20.3807 22.5852 20.6518 21.4876 20.9873C21.3599 21.026 21.2087 21.0828 21.1878 21.2351C20.8723 22.3037 20.5386 23.3698 20.2362 24.4436C20.2127 24.5339 20.158 24.6139 20.1085 24.6914C19.7669 23.4911 19.3941 22.2986 19.0343 21.1009C17.8246 20.6956 16.5758 20.4169 15.3687 20.0065C16.5315 19.5702 17.762 19.3224 18.9405 18.9249C19.063 18.8965 19.0839 18.7571 19.1204 18.6616Z" fill="#E4E52A"/>
</svg>
