<svg width="96" height="24" viewBox="0 0 96 24" fill="none" xmlns="http://www.w3.org/2000/svg">
<path fill-rule="evenodd" clip-rule="evenodd" d="M10.436 0.535664C7.94034 0.764052 5.5948 1.88833 3.79192 3.72037C1.98905 5.55241 0.838212 7.98106 0.531987 10.5999C0.225762 13.2188 0.782727 15.869 2.10968 18.1071C3.43664 20.3452 5.45308 22.0353 7.8216 22.8947C10.1901 23.7542 12.767 23.7307 15.1211 22.8283C17.4751 21.9259 19.4635 20.1993 20.7536 17.9374C22.0436 15.6755 22.557 13.0156 22.2079 10.4027C21.8587 7.78975 20.6682 5.3824 18.8356 3.58345C17.719 2.47982 16.3933 1.63766 14.9456 1.11236C13.4979 0.587062 11.961 0.39052 10.436 0.535664ZM10.2166 0.0369362C10.7712 -0.0153116 11.3274 0.00368743 11.8836 0.00210417C12.5302 0.0181416 13.1737 0.101943 13.8046 0.252263C15.883 0.724859 17.7945 1.80023 19.3232 3.35689C20.8519 4.91356 21.9369 6.88949 22.4556 9.06147C22.9743 11.2335 22.906 13.5149 22.2584 15.6482C21.6109 17.7814 20.4099 19.6815 18.7911 21.1336C17.1723 22.5857 15.2003 23.5322 13.0978 23.8659C10.9952 24.1997 8.84596 23.9075 6.89278 23.0223C4.9396 22.1372 3.26033 20.6944 2.04467 18.8569C0.829007 17.0194 0.125397 14.8604 0.013324 12.6239C-0.0170648 11.9302 0.0045483 11.2351 0.0779599 10.5451C0.353301 8.14144 1.3123 5.8817 2.82904 4.06258C4.34579 2.24345 6.34936 0.949981 8.57667 0.352009C9.11631 0.209967 9.66409 0.104722 10.2166 0.0369362Z" fill="#2C57A7"/>
<path fill-rule="evenodd" clip-rule="evenodd" d="M11.7787 6.23359C11.3962 7.89192 11.0287 9.55975 10.6417 11.2102C9.00355 11.6262 7.36494 12.0417 5.72583 12.4567C5.61482 12.4947 5.47381 12.4836 5.3943 12.5881C7.01142 12.9778 8.61953 13.4022 10.2351 13.7982C10.3731 13.8298 10.5093 13.8695 10.6432 13.917C11.0587 15.786 11.4922 17.6502 11.9093 19.5192C11.9322 19.4832 11.9508 19.4444 11.9648 19.4036C12.3778 17.5578 12.7948 15.7147 13.2158 13.8742C14.96 13.4371 16.7061 13.0073 18.4542 12.585C18.4237 12.547 18.3828 12.5199 18.3372 12.5074C16.6871 12.0924 15.037 11.66 13.3869 11.2402C13.3179 11.2197 13.2503 11.1959 13.1843 11.1721C12.7673 9.31741 12.3638 7.4611 11.9438 5.60796C11.8668 5.80662 11.8115 6.01385 11.7787 6.22568V6.23359ZM11.8598 1.77813C11.8897 1.58184 11.9348 1.38848 11.9948 1.20001C12.6218 4.25216 13.2218 7.30905 13.8444 10.3675C13.8609 10.442 13.8804 10.5164 13.8984 10.5924C16.5176 11.188 19.1378 11.7793 21.7589 12.3664C22.1055 12.4503 22.4565 12.5105 22.8 12.6103C21.8039 12.8701 20.7929 13.0665 19.7923 13.3025C17.8302 13.7428 15.8695 14.1926 13.9059 14.6266C13.8159 14.9212 13.7694 15.2285 13.7064 15.531C13.2063 17.9966 12.7063 20.4627 12.2063 22.9293C12.1223 23.2841 12.0803 23.65 11.9738 24C11.7832 23.2778 11.6737 22.5349 11.5087 21.8063C11.0167 19.4099 10.5382 17.0119 10.0386 14.6187C7.15242 13.9645 4.26322 13.3215 1.37702 12.6705C1.31619 12.6535 1.25694 12.6307 1.20001 12.6024C2.93563 12.1906 4.67725 11.8104 6.41587 11.4081C7.62796 11.123 8.84904 10.868 10.0581 10.5687C10.6717 7.63691 11.2582 4.70673 11.8598 1.77813Z" fill="#2C57A7"/>
<path fill-rule="evenodd" clip-rule="evenodd" d="M10.8147 11.1431C10.7935 11.2038 10.7814 11.2924 10.7101 11.3071C10.0248 11.558 9.30915 11.7171 8.63293 11.9942C9.33493 12.255 10.0612 12.4321 10.7647 12.6879C10.9755 13.4472 11.1923 14.2048 11.3909 14.969C11.4236 14.919 11.4487 14.8637 11.4652 14.805C11.6411 14.1228 11.8351 13.4456 12.0186 12.7666C12.0307 12.6699 12.1187 12.6338 12.193 12.6027C12.8298 12.3895 13.4802 12.2173 14.1125 11.9877C13.9863 11.9054 13.8469 11.8498 13.7016 11.8237C13.1952 11.6597 12.6888 11.4957 12.1854 11.3317C12.1293 11.3038 12.0338 11.2973 12.0231 11.2202C11.8124 10.4855 11.6411 9.7361 11.4167 9.00634C11.2089 9.71314 11.0194 10.4249 10.8238 11.1382L10.8147 11.1431ZM11.259 5.43955C11.2899 5.22027 11.3443 5.00564 11.4212 4.79999C11.8442 6.71868 12.2521 8.64064 12.6736 10.561C12.7418 10.5856 12.8085 10.6102 12.8783 10.6315C14.5461 11.0611 16.2139 11.5088 17.8817 11.9434C17.9278 11.9564 17.9691 11.9845 18 12.0238C16.2341 12.4611 14.4698 12.9049 12.7069 13.3554C12.2824 15.262 11.8604 17.1703 11.4409 19.0803C11.4274 19.1228 11.4085 19.163 11.3848 19.2C10.9633 17.2665 10.5267 15.3347 10.1052 13.3996C9.9699 13.3504 9.83222 13.3094 9.69275 13.2767C8.05981 12.8667 6.43445 12.4272 4.79999 12.0238C4.88035 11.9155 5.02287 11.927 5.13658 11.8877C6.79227 11.4629 8.44795 11.0283 10.1036 10.5971C10.4948 8.87679 10.8663 7.15653 11.2529 5.43955H11.259Z" fill="#EE2A28"/>
<path fill-rule="evenodd" clip-rule="evenodd" d="M10.798 11.7452C11.0106 11.029 11.2182 10.3129 11.4474 9.60001C11.6981 10.3343 11.8858 11.0852 12.1116 11.8277C12.1316 11.9053 12.2295 11.9119 12.2893 11.9399C12.844 12.105 13.3986 12.27 13.95 12.435C14.1091 12.4613 14.2618 12.5172 14.4 12.6C13.7075 12.831 12.9968 13.0043 12.2976 13.2188C12.2162 13.2436 12.1199 13.2799 12.1066 13.3838C11.9074 14.067 11.6931 14.7485 11.5005 15.435C11.4832 15.4943 11.4557 15.5501 11.4191 15.6C11.2016 14.831 10.9641 14.0687 10.7349 13.3046C9.96271 13.0472 9.16725 12.869 8.40002 12.6066C9.14068 12.3277 9.92286 12.1677 10.6735 11.9152C10.7665 11.8954 10.7665 11.8063 10.798 11.7452Z" fill="#E4E52A"/>
<path d="M63.1173 18H60.8413L61.5449 13.4901H58.1971L57.4885 18H55.2L56.8851 7.20001H59.1812L58.5051 11.4878H61.8503L62.5189 7.20001H64.8L63.1173 18Z" fill="#EE2A28"/>
<path d="M70.4432 15.9755H67.1667L66.2565 18H63.6L69.0344 7.20001H71.3032L73.2 18H70.6912L70.4432 15.9755ZM68.0689 13.9733H70.1978L69.7467 10.2492L68.0689 13.9733Z" fill="#EE2A28"/>
<path d="M81.1047 18H78.8877L76.5554 11.1823L75.4921 18H73.2L74.8877 7.20001H77.1272L79.4445 14.0149L80.5078 7.20001H82.8L81.1047 18Z" fill="#EE2A28"/>
<path d="M87.4805 17.999C87.0284 18.0086 86.5792 17.9177 86.1609 17.732C85.7427 17.5462 85.3643 17.2696 85.0494 16.9193C84.41 16.1467 84.0433 15.1556 84.0139 14.1202C83.9753 13.4388 84.0173 12.7549 84.1389 12.0849C84.2607 11.3303 84.4929 10.6014 84.8268 9.92554C85.1355 9.29524 85.5562 8.73668 86.0649 8.2817C86.8616 7.55328 87.8799 7.1687 88.9237 7.20201C89.537 7.20112 90.1401 7.37127 90.6746 7.69597C91.1787 8.02027 91.5912 8.48691 91.8676 9.04559C92.1737 9.67032 92.3512 10.359 92.3879 11.0646C92.4195 11.6728 92.3893 12.2828 92.2978 12.8839C92.2042 13.5562 92.0267 14.2118 91.7701 14.8328C91.5207 15.4279 91.1828 15.975 90.7696 16.4523C90.3642 16.9231 89.8773 17.3036 89.3364 17.5725C88.7568 17.8679 88.1214 18.0139 87.4805 17.999ZM90.0868 11.0619C90.0418 9.85986 89.6099 9.23453 88.7912 9.18594C88.4871 9.16562 88.1833 9.22932 87.9085 9.37101C87.6336 9.51271 87.3968 9.72772 87.2204 9.99572C86.8052 10.5698 86.5309 11.4173 86.3975 12.5384C86.3211 13.0696 86.2902 13.6072 86.305 14.1444C86.35 15.3663 86.786 15.9961 87.6131 16.0339C87.8759 16.0512 88.1389 16.0035 88.3821 15.8945C88.6252 15.7855 88.8421 15.6181 89.0163 15.405C89.4618 14.8455 89.759 14.1666 89.8767 13.4399C90.0397 12.6601 90.1103 11.861 90.0868 11.0619Z" fill="#EE2A28"/>
<path d="M94.4655 18H92.4L93.9344 7.20001H96L94.4655 18Z" fill="#EE2A28"/>
<path d="M32.981 13.4151H29.6849V15.9978H33.5776V18H27.6V7.20001H33.6V9.21061H29.6849V11.4878H32.981V13.4151Z" fill="#2C57A7"/>
<path d="M39.5868 15.0619L41.6341 7.20001H44.4L40.942 18H38.2342L34.8 7.20001H37.5632L39.5868 15.0619Z" fill="#2C57A7"/>
<path d="M52.8 18H50.3896L46.8232 11.2795V18H44.4V7.20001H46.8232L50.3819 13.9205V7.20001H52.8V18Z" fill="#2C57A7"/>
</svg>
