<svg width="12" height="14" viewBox="0 0 12 14" fill="none" xmlns="http://www.w3.org/2000/svg">
<path d="M11.8498 5.60469L10.232 0.545764C10.2214 0.511913 10.2003 0.482346 10.1717 0.461441C10.1431 0.440535 10.1085 0.429403 10.073 0.429693H8.69089C8.61767 0.429693 8.55517 0.476122 8.53196 0.545764L6.9016 5.60469C6.89624 5.62076 6.89267 5.63862 6.89267 5.65648C6.89267 5.74755 6.96767 5.82255 7.05874 5.82255H8.06589C8.14089 5.82255 8.20517 5.77255 8.2266 5.70112L8.5391 4.60112H10.1284L10.4373 5.69934C10.457 5.77077 10.523 5.82077 10.598 5.82077H11.6909C11.7087 5.82077 11.7248 5.81898 11.7409 5.81362C11.7837 5.79934 11.8177 5.77076 11.8391 5.73148C11.8587 5.69219 11.8623 5.64755 11.8498 5.60469ZM8.7016 3.67076L9.28731 1.58326H9.39982L9.97303 3.67076H8.7016ZM11.2641 12.4726H8.94982V12.4654L11.3177 9.09219C11.3373 9.06362 11.348 9.03148 11.348 8.99577V8.34577C11.348 8.25469 11.273 8.17969 11.182 8.17969H7.5391C7.44803 8.17969 7.37303 8.25469 7.37303 8.34577V9.11362C7.37303 9.20469 7.44803 9.27969 7.5391 9.27969H9.72839V9.28684L7.3516 12.6601C7.33176 12.6883 7.32116 12.722 7.32124 12.7565V13.4065C7.32124 13.4976 7.39624 13.5726 7.48732 13.5726H11.2623C11.3534 13.5726 11.4284 13.4976 11.4284 13.4065V12.6386C11.4286 12.6169 11.4245 12.5953 11.4164 12.5752C11.4082 12.5551 11.3962 12.5367 11.3809 12.5213C11.3656 12.5059 11.3474 12.4936 11.3274 12.4852C11.3073 12.4769 11.2858 12.4726 11.2641 12.4726ZM2.39803 0.842193C2.38467 0.825119 2.36759 0.81131 2.3481 0.801813C2.32861 0.792316 2.30721 0.787381 2.28553 0.787381C2.26385 0.787381 2.24245 0.792316 2.22296 0.801813C2.20347 0.81131 2.18639 0.825119 2.17303 0.842193L0.17303 3.37612C0.0980301 3.47076 0.165887 3.60826 0.28553 3.60826H1.64267V13.0726C1.64267 13.1511 1.70696 13.2154 1.78553 13.2154H2.78553C2.8641 13.2154 2.92839 13.1511 2.92839 13.0726V3.60826H4.28553C4.40517 3.60826 4.47303 3.46898 4.39803 3.37612L2.39803 0.842193Z" fill="#FDFDFD"/>
</svg>
