<svg width="120" height="120" viewBox="0 0 120 120" fill="none" xmlns="http://www.w3.org/2000/svg">
<path fill-rule="evenodd" clip-rule="evenodd" d="M54.9335 2.67271C41.5898 3.7661 28.7371 9.80354 19.3291 19.3272C10.6023 27.9792 4.81341 39.5312 3.08705 51.6932C1.05184 65.3686 4.19572 79.7412 11.7902 91.309C19.5271 103.281 31.8651 112.179 45.676 115.673C52.6686 117.455 59.9938 117.978 67.1527 117.028C78.3661 115.665 89.1124 110.832 97.6333 103.416C105.964 96.2134 112.165 86.5709 115.214 75.9777C118.698 64.0296 118.144 50.9564 113.662 39.341C110.542 31.2277 105.56 23.8354 99.1934 17.9248C87.489 6.85613 70.9618 1.14354 54.9335 2.67271ZM53.8011 0.184839C56.7232 -0.0766244 59.6533 0.0184534 62.5754 0.0105302C65.9886 0.0184534 69.3621 0.580997 72.6961 1.26239C83.6482 3.59972 93.8718 9.13007 101.886 16.9502C111.634 26.4342 118.033 39.3014 119.577 52.8183C121.003 64.7347 118.809 77.079 113.218 87.7119C108.506 96.768 101.442 104.58 92.9136 110.174C82.9038 116.806 70.843 120.276 58.8376 119.983C46.1512 119.832 33.5836 115.411 23.5342 107.686C16.0506 101.981 9.945 94.4782 5.86666 85.9925C2.45352 78.8696 0.426225 71.0653 0.0461076 63.1659C-0.00932615 59.6956 -0.104356 56.2015 0.38663 52.7628C1.66953 41.6942 6.1755 31.0297 13.1681 22.3617C21.2297 12.2756 32.6333 4.89119 45.1613 1.75362C47.9963 1.00092 50.9027 0.557227 53.8011 0.184839Z" fill="#2C57A7"/>
<path fill-rule="evenodd" clip-rule="evenodd" d="M58.8282 28.1766C56.8171 36.4712 54.8772 44.7894 52.8265 53.0681C44.1803 55.1437 35.5341 57.2431 26.8879 59.3028C26.302 59.493 25.5498 59.4296 25.1381 59.9604C33.6655 61.9092 42.1613 64.0324 50.6887 66.0129C51.4171 66.1714 52.1377 66.3694 52.8423 66.6071C55.0435 75.9552 57.3238 85.2796 59.5249 94.6278C59.6516 94.4456 59.7466 94.2475 59.8179 94.0495C61.9953 84.8281 64.2123 75.6067 66.4292 66.3932C75.6376 64.2225 84.846 62.0598 94.0702 59.9604C93.9039 59.7703 93.698 59.6356 93.4526 59.5722C84.7351 57.4887 76.0414 55.3338 67.3239 53.2582C66.9597 53.1552 66.6113 53.0364 66.255 52.9176C64.0539 43.6407 61.924 34.3559 59.715 25.087C59.2003 26.0456 59.0974 27.1388 58.8282 28.1766ZM59.2557 5.89159C59.4774 4.92509 59.6041 3.92689 59.9762 3C63.2938 18.2581 66.4609 33.5558 69.7309 48.8218C69.818 49.1942 69.921 49.5744 70.0239 49.9468C83.8483 52.9334 97.6807 55.8567 111.505 58.8196C113.334 59.2395 115.187 59.5405 117 60.0396C111.743 61.3388 106.414 62.3133 101.125 63.5016C90.7684 65.696 80.4199 67.9539 70.0556 70.1166C69.5726 71.5901 69.3351 73.1349 69.0025 74.6402C66.3659 86.975 63.7372 99.3098 61.1006 111.645C60.6572 113.427 60.4355 115.257 59.8733 117C58.8678 113.387 58.266 109.672 57.4188 106.028C54.8218 94.0495 52.296 82.0474 49.6594 70.0849C34.4256 66.8131 19.176 63.5967 3.9343 60.3327C3.60967 60.2614 3.30879 60.1268 3 60C12.1609 57.9402 21.3534 56.031 30.5301 54.0188C36.9355 52.5928 43.3727 51.3252 49.7544 49.82C52.9532 35.1957 56.0807 20.5397 59.2557 5.89159Z" fill="#2C57A7"/>
<path fill-rule="evenodd" clip-rule="evenodd" d="M56.4011 55.8373C56.2822 56.1404 56.2188 56.563 55.8542 56.6507C52.2719 57.8708 48.531 58.6443 44.9962 59.992C48.6657 61.26 52.4621 62.1212 56.1396 63.3732C57.2333 67.0654 58.3666 70.7496 59.4049 74.4657C59.5634 74.2265 59.7219 73.9793 59.7932 73.7002C60.7126 70.3828 61.7271 67.0893 62.6861 63.7879C62.7495 63.3174 63.2092 63.1419 63.5975 63.0223C66.9263 61.9856 70.3263 61.1483 73.6313 60.0319C73.021 59.5295 72.2126 59.4498 71.4914 59.2105C68.8442 58.4051 66.1971 57.6156 63.55 56.7943C63.2567 56.6507 62.797 56.6188 62.7019 56.244C61.5923 52.6714 60.6968 49.0271 59.5 45.4785C58.4142 48.9155 57.4235 52.3764 56.4011 55.8373ZM58.7233 28.1021C58.9928 27.0654 59.1037 25.9569 59.603 25C61.8143 34.3301 63.9542 43.6762 66.1496 53.0144C66.5062 53.134 66.8549 53.2536 67.2195 53.3573C75.9456 55.4466 84.6558 57.6236 93.3818 59.7129C93.6196 59.7767 93.8336 59.9043 94 60.1037C84.7667 62.2169 75.5414 64.386 66.3318 66.5789C64.1206 75.8533 61.8935 85.1356 59.714 94.4179C59.6427 94.6252 59.5476 94.8166 59.4207 95C57.2174 85.5901 54.9349 76.2041 52.7316 66.7943C52.0262 66.555 51.305 66.3557 50.5758 66.1962C42.04 64.2026 33.5438 62.0574 25 60.1037C25.4201 59.5774 26.1651 59.6332 26.7515 59.4418C35.4142 57.3684 44.061 55.2552 52.7157 53.1659C54.7605 44.8166 56.7023 36.4514 58.7233 28.1021Z" fill="#EE2A28"/>
<path fill-rule="evenodd" clip-rule="evenodd" d="M56.5502 55.3634C57.5776 51.9089 58.581 48.4385 59.6886 45C60.9006 48.5502 61.8076 52.1882 62.9314 55.7703C63.0277 56.1453 63.4932 56.1772 63.7902 56.3208C66.4711 57.1345 69.152 57.9323 71.8328 58.7381C72.5632 58.9774 73.39 59.0492 74 59.5598C70.6529 60.6767 67.2176 61.5144 63.8384 62.5516C63.4451 62.6712 62.9795 62.8468 62.9153 63.3175C61.9441 66.6204 60.9167 69.9153 59.9856 73.2341C59.9134 73.5133 59.7448 73.7607 59.5923 74C58.5408 70.2902 57.393 66.6044 56.2854 62.9026C52.561 61.6501 48.7163 60.7884 45 59.5199C48.5799 58.1717 52.3684 57.4058 55.9964 56.1772C56.3736 56.0894 56.4379 55.6586 56.5502 55.3634Z" fill="#E4E52A"/>
</svg>
