<svg width="20" height="20" viewBox="0 0 20 20" fill="none" xmlns="http://www.w3.org/2000/svg">
<path fill-rule="evenodd" clip-rule="evenodd" d="M9.08757 1.30878C9.2045 1.18389 9.34581 1.08433 9.50277 1.01627C9.65973 0.948204 9.82899 0.913086 10.0001 0.913086C10.1712 0.913086 10.3404 0.948204 10.4974 1.01627C10.6543 1.08433 10.7956 1.18389 10.9126 1.30878L18.8438 9.77128C19.5938 10.5688 19.0263 11.875 17.9313 11.875H14.3751V13.125C14.3751 13.4565 14.2434 13.7745 14.009 14.0089C13.7745 14.2433 13.4566 14.375 13.1251 14.375H6.87507C6.54355 14.375 6.22561 14.2433 5.99119 14.0089C5.75677 13.7745 5.62507 13.4565 5.62507 13.125V11.875H2.06757C0.975071 11.875 0.407571 10.5688 1.15507 9.77003L9.08757 1.30878ZM5.62507 16.875C5.62507 16.5435 5.75677 16.2256 5.99119 15.9911C6.22561 15.7567 6.54355 15.625 6.87507 15.625H13.1251C13.4566 15.625 13.7745 15.7567 14.009 15.9911C14.2434 16.2256 14.3751 16.5435 14.3751 16.875V18.125C14.3751 18.4565 14.2434 18.7745 14.009 19.0089C13.7745 19.2433 13.4566 19.375 13.1251 19.375H6.87507C6.54355 19.375 6.22561 19.2433 5.99119 19.0089C5.75677 18.7745 5.62507 18.4565 5.62507 18.125V16.875Z" fill="#F5222D"/>
</svg>
