<svg width="24" height="24" viewBox="0 0 24 24" fill="none" xmlns="http://www.w3.org/2000/svg">
<path fill-rule="evenodd" clip-rule="evenodd" d="M11.4691 21.5309C11.3993 21.4613 11.3439 21.3785 11.3061 21.2874C11.2682 21.1963 11.2488 21.0986 11.2488 20.9999C11.2488 20.9013 11.2682 20.8036 11.3061 20.7125C11.3439 20.6214 11.3993 20.5386 11.4691 20.4689L19.9396 11.9999L11.4691 3.53094C11.3283 3.39011 11.2492 3.1991 11.2492 2.99994C11.2492 2.80078 11.3283 2.60977 11.4691 2.46894C11.61 2.32811 11.801 2.24899 12.0001 2.24899C12.1993 2.24899 12.3903 2.32811 12.5311 2.46894L21.5311 11.4689C21.601 11.5386 21.6564 11.6214 21.6942 11.7125C21.732 11.8036 21.7515 11.9013 21.7515 11.9999C21.7515 12.0986 21.732 12.1963 21.6942 12.2874C21.6564 12.3785 21.601 12.4613 21.5311 12.5309L12.5311 21.5309C12.4615 21.6008 12.3787 21.6562 12.2876 21.694C12.1965 21.7318 12.0988 21.7513 12.0001 21.7513C11.9015 21.7513 11.8038 21.7318 11.7127 21.694C11.6216 21.6562 11.5388 21.6008 11.4691 21.5309Z" fill="#A8A8AE"/>
<path fill-rule="evenodd" clip-rule="evenodd" d="M5.46912 21.5309C5.39928 21.4613 5.34386 21.3785 5.30606 21.2874C5.26825 21.1963 5.24878 21.0986 5.24878 20.9999C5.24878 20.9013 5.26825 20.8036 5.30606 20.7125C5.34386 20.6214 5.39928 20.5386 5.46912 20.4689L13.9396 11.9999L5.46912 3.53094C5.39939 3.46121 5.34408 3.37843 5.30634 3.28732C5.2686 3.19621 5.24918 3.09856 5.24918 2.99994C5.24918 2.90133 5.2686 2.80367 5.30634 2.71257C5.34408 2.62146 5.39939 2.53867 5.46912 2.46894C5.53886 2.39921 5.62164 2.34389 5.71275 2.30616C5.80386 2.26842 5.90151 2.24899 6.00012 2.24899C6.09874 2.24899 6.19639 2.26842 6.2875 2.30616C6.37861 2.34389 6.46139 2.39921 6.53112 2.46894L15.5311 11.4689C15.601 11.5386 15.6564 11.6214 15.6942 11.7125C15.732 11.8036 15.7515 11.9013 15.7515 11.9999C15.7515 12.0986 15.732 12.1963 15.6942 12.2874C15.6564 12.3785 15.601 12.4613 15.5311 12.5309L6.53112 21.5309C6.46146 21.6008 6.37869 21.6562 6.28757 21.694C6.19646 21.7318 6.09877 21.7513 6.00012 21.7513C5.90147 21.7513 5.80379 21.7318 5.71267 21.694C5.62156 21.6562 5.53879 21.6008 5.46912 21.5309Z" fill="#A8A8AE"/>
</svg>
