<svg width="17" height="17" viewBox="0 0 17 17" fill="none" xmlns="http://www.w3.org/2000/svg">
<path d="M2.125 3.71875V1.59375H14.875V3.71875L10.0938 9.03125V14.3438L6.90625 15.4062V9.03125L2.125 3.71875Z" fill="#0A2D7D"/>
<path fill-rule="evenodd" clip-rule="evenodd" d="M1.59375 1.59375C1.59375 1.45285 1.64972 1.31773 1.74935 1.2181C1.84898 1.11847 1.9841 1.0625 2.125 1.0625H14.875C15.0159 1.0625 15.151 1.11847 15.2507 1.2181C15.3503 1.31773 15.4062 1.45285 15.4062 1.59375V3.71875C15.4062 3.84977 15.3578 3.97615 15.2702 4.07363L10.625 9.23525V14.3438C10.6249 14.4552 10.5898 14.5638 10.5246 14.6542C10.4594 14.7446 10.3674 14.8122 10.2616 14.8474L7.07412 15.9099C6.9943 15.9365 6.90931 15.9437 6.82614 15.931C6.74297 15.9183 6.664 15.8861 6.59573 15.8369C6.52747 15.7877 6.47186 15.723 6.43348 15.6482C6.39511 15.5733 6.37506 15.4904 6.375 15.4063V9.23525L1.72975 4.07363C1.64221 3.97615 1.59377 3.84977 1.59375 3.71875V1.59375ZM2.65625 2.125V3.51475L7.3015 8.67638C7.38904 8.77385 7.43748 8.90024 7.4375 9.03125V14.6689L9.5625 13.9613V9.03125C9.56252 8.90024 9.61096 8.77385 9.6985 8.67638L14.3438 3.51475V2.125H2.65625Z" fill="#0A2D7D"/>
</svg>
