<svg width="24" height="24" viewBox="0 0 24 24" fill="none" xmlns="http://www.w3.org/2000/svg">
<path fill-rule="evenodd" clip-rule="evenodd" d="M21 5.25C21 6.24456 20.6049 7.19839 19.9016 7.90165C19.1984 8.60491 18.2446 9 17.25 9C16.2554 9 15.3016 8.60491 14.5983 7.90165C13.8951 7.19839 13.5 6.24456 13.5 5.25C13.5 4.25544 13.8951 3.30161 14.5983 2.59835C15.3016 1.89509 16.2554 1.5 17.25 1.5C18.2446 1.5 19.1984 1.89509 19.9016 2.59835C20.6049 3.30161 21 4.25544 21 5.25ZM10.5 12.75C10.5 13.7446 10.1049 14.6984 9.40165 15.4017C8.69839 16.1049 7.74456 16.5 6.75 16.5C5.75544 16.5 4.80161 16.1049 4.09835 15.4017C3.39509 14.6984 3 13.7446 3 12.75C3 11.7554 3.39509 10.8016 4.09835 10.0983C4.80161 9.39509 5.75544 9 6.75 9C7.74456 9 8.69839 9.39509 9.40165 10.0983C10.1049 10.8016 10.5 11.7554 10.5 12.75ZM21 20.25C21 21.2446 20.6049 22.1984 19.9016 22.9016C19.1984 23.6049 18.2446 24 17.25 24C16.2554 24 15.3016 23.6049 14.5983 22.9016C13.8951 22.1984 13.5 21.2446 13.5 20.25C13.5 19.2554 13.8951 18.3016 14.5983 17.5984C15.3016 16.8951 16.2554 16.5 17.25 16.5C18.2446 16.5 19.1984 16.8951 19.9016 17.5984C20.6049 18.3016 21 19.2554 21 20.25Z" fill="#22438E"/>
<path fill-rule="evenodd" clip-rule="evenodd" d="M14.25 5.25C14.25 5.66421 13.9142 6 13.5 6H0.75C0.335786 6 0 5.66421 0 5.25C0 4.83579 0.335786 4.5 0.75 4.5H13.5C13.9142 4.5 14.25 4.83579 14.25 5.25ZM24 5.25C24 5.66421 23.6642 6 23.25 6H21C20.5858 6 20.25 5.66421 20.25 5.25C20.25 4.83579 20.5858 4.5 21 4.5H23.25C23.6642 4.5 24 4.83579 24 5.25ZM14.25 20.25C14.25 20.6642 13.9142 21 13.5 21H0.75C0.335786 21 0 20.6642 0 20.25C0 19.8358 0.335786 19.5 0.75 19.5H13.5C13.9142 19.5 14.25 19.8358 14.25 20.25ZM24 20.25C24 20.6642 23.6642 21 23.25 21H21C20.5858 21 20.25 20.6642 20.25 20.25C20.25 19.8358 20.5858 19.5 21 19.5H23.25C23.6642 19.5 24 19.8358 24 20.25ZM9.75 12.75C9.75 13.1642 10.0858 13.5 10.5 13.5H23.25C23.6642 13.5 24 13.1642 24 12.75C24 12.3358 23.6642 12 23.25 12H10.5C10.0858 12 9.75 12.3358 9.75 12.75ZM0 12.75C0 13.1642 0.335786 13.5 0.75 13.5H3C3.41421 13.5 3.75 13.1642 3.75 12.75C3.75 12.3358 3.41421 12 3 12H0.75C0.335786 12 0 12.3358 0 12.75Z" fill="#22438E"/>
</svg>
